<svg width="88" height="40" viewBox="0 0 88 40" fill="none" xmlns="http://www.w3.org/2000/svg">
<path fill-rule="evenodd" clip-rule="evenodd" d="M17.9091 15.2652C17.5032 14.8906 16.8706 14.9159 16.496 15.3217L13.2652 18.8217C12.9116 19.2047 12.9116 19.7952 13.2652 20.1782L16.496 23.6783C16.8706 24.0841 17.5032 24.1094 17.909 23.7348C18.3149 23.3602 18.3402 22.7276 17.9656 22.3217L16.284 20.5L26 20.5C26.5523 20.5 27 20.0523 27 19.5C27 18.9477 26.5523 18.5 26 18.5L16.284 18.5L17.9656 16.6783C18.3402 16.2725 18.3149 15.6398 17.9091 15.2652Z" fill="#777E91"/>
<rect x="49" y="1" width="38" height="38" rx="19" stroke="#E6E8EC" stroke-width="2"/>
<path fill-rule="evenodd" clip-rule="evenodd" d="M70.0909 15.2652C70.4968 14.8906 71.1294 14.9159 71.504 15.3217L74.7348 18.8217C75.0884 19.2047 75.0884 19.7952 74.7348 20.1782L71.504 23.6783C71.1294 24.0841 70.4968 24.1094 70.091 23.7348C69.6851 23.3602 69.6598 22.7276 70.0344 22.3217L71.716 20.5L62 20.5C61.4477 20.5 61 20.0523 61 19.5C61 18.9477 61.4477 18.5 62 18.5L71.716 18.5L70.0344 16.6783C69.6598 16.2725 69.6851 15.6398 70.0909 15.2652Z" fill="#777E91"/>
</svg>
