<svg width="16" height="16" viewBox="0 0 16 16" fill="none" xmlns="http://www.w3.org/2000/svg">
<path fill-rule="evenodd" clip-rule="evenodd" d="M7.9944 2.78079L7.99998 2.7779L8.00581 2.78092L10.9748 4.56229L12 5.17997V12.5334C12 12.9287 11.9989 13.1451 11.9862 13.3005L11.9847 13.3181L11.9671 13.3196C11.8117 13.3323 11.5954 13.3334 11.2 13.3334H4.79998C4.40461 13.3334 4.18827 13.3323 4.03282 13.3196L4.01525 13.3181L4.01372 13.3005C4.00102 13.1451 3.99998 12.9287 3.99998 12.5334V5.17999L5.02142 4.56458L7.9944 2.78079ZM4.33444 3.42184L0.990335 5.42831C0.674615 5.61774 0.572238 6.02725 0.76167 6.34297C0.951103 6.65869 1.36061 6.76106 1.67633 6.57163L2.66665 5.97744V12.5334C2.66665 13.2801 2.66665 13.6535 2.81197 13.9387C2.9398 14.1896 3.14378 14.3935 3.39466 14.5214C3.67987 14.6667 4.05324 14.6667 4.79998 14.6667H11.2C11.9467 14.6667 12.3201 14.6667 12.6053 14.5214C12.8562 14.3935 13.0602 14.1896 13.188 13.9387C13.3333 13.6535 13.3333 13.2801 13.3333 12.5334V5.97742L14.3237 6.57163C14.6394 6.76106 15.0489 6.65869 15.2383 6.34297C15.4278 6.02725 15.3254 5.61774 15.0097 5.42831L11.6617 3.41954L9.10092 1.87668C8.91474 1.76451 8.77187 1.67843 8.65078 1.6137C8.62252 1.59789 8.59383 1.58319 8.56477 1.5696C8.464 1.52042 8.37666 1.48769 8.28692 1.46792C8.09789 1.42626 7.90207 1.42626 7.71304 1.46792C7.62307 1.48775 7.5355 1.52059 7.43441 1.56998C7.40587 1.58335 7.37769 1.59779 7.34994 1.6133C7.22869 1.67807 7.08561 1.76428 6.89905 1.87668L4.33444 3.42184Z" fill="#777E91"/>
<path fill-rule="evenodd" clip-rule="evenodd" d="M8.66667 13.3333V10.6667C8.66667 10.2985 8.36819 9.99999 8 9.99999C7.63181 9.99999 7.33333 10.2985 7.33333 10.6667V13.3333H8.66667ZM8 8.66666C6.89543 8.66666 6 9.56209 6 10.6667V14.6667H10V10.6667C10 9.56209 9.10457 8.66666 8 8.66666Z" fill="#777E91"/>
</svg>
